<?xml version="1.0" encoding="utf-8"?>
<!-- Generator: Adobe Illustrator 15.1.0, SVG Export Plug-In . SVG Version: 6.00 Build 0)  -->
<!DOCTYPE svg PUBLIC "-//W3C//DTD SVG 1.1//EN" "http://www.w3.org/Graphics/SVG/1.1/DTD/svg11.dtd">
<svg version="1.1" id="Layer_1" xmlns="http://www.w3.org/2000/svg" xmlns:xlink="http://www.w3.org/1999/xlink" x="0px" y="0px"
	 width="400px" height="400px" viewBox="0 0 400 400" enable-background="new 0 0 400 400" xml:space="preserve">
<g>
	<path d="M200,18c48.613,0,94.317,18.931,128.693,53.307C363.068,105.682,382,151.386,382,200
		c0,48.613-18.932,94.317-53.307,128.693C294.317,363.068,248.613,382,200,382s-94.317-18.932-128.693-53.307
		C36.932,294.317,18,248.613,18,200c0-48.614,18.932-94.318,53.307-128.693C105.683,36.931,151.387,18,200,18 M200,0
		C89.544,0,0,89.543,0,200c0,110.456,89.544,200,200,200s200-89.544,200-200C400,89.543,310.456,0,200,0L200,0z"/>
</g>
<g>
	<path d="M141.521,199.377c0,15.829-5.648,27.493-16.949,34.985c-6.443,4.222-16.948,6.332-31.517,6.332H48.305v-81.688h49.359
		c13.279,0,23.688,3.166,31.221,9.498C137.307,175.471,141.521,185.76,141.521,199.377z M123.086,199.059
		c0-16.991-8.425-25.486-25.274-25.486H63.926v51.767h25.263c10.903,0,18.83-1.477,23.788-4.435
		C119.716,216.896,123.086,209.613,123.086,199.059z"/>
	<path d="M244.11,240.991h-16.191l-56.187-57.128l0.017,57.128h-15.663v-81.688h16.193l56.157,56.993l0.013-14.092v-42.901h15.661
		V240.991z"/>
	<path d="M358.863,240.694h-19.646l-9.021-17.889H282.61l-8.731,17.889h-17.463l42.493-81.688h16.879L358.863,240.694z
		 M322.92,208.083l-16.154-33.246l-16.733,33.246H322.92z"/>
</g>
</svg>
