<?xml version="1.0" encoding="utf-8"?>
<!-- Generator: Adobe Illustrator 15.1.0, SVG Export Plug-In . SVG Version: 6.00 Build 0)  -->
<!DOCTYPE svg PUBLIC "-//W3C//DTD SVG 1.1//EN" "http://www.w3.org/Graphics/SVG/1.1/DTD/svg11.dtd">
<svg version="1.1" id="Layer_1" xmlns="http://www.w3.org/2000/svg" xmlns:xlink="http://www.w3.org/1999/xlink" x="0px" y="0px"
	 width="1001.5px" height="400px" viewBox="0 0 1001.5 400" enable-background="new 0 0 1001.5 400" xml:space="preserve">
<g>
	<path fill="#FFFFFF" d="M200,18c48.613,0,94.316,18.931,128.693,53.307C363.068,105.682,382,151.386,382,200
		c0,48.613-18.932,94.316-53.307,128.693C294.316,363.068,248.613,382,200,382s-94.317-18.932-128.693-53.307
		C36.932,294.316,18,248.613,18,200c0-48.614,18.932-94.318,53.307-128.693C105.683,36.931,151.387,18,200,18 M200,0
		C89.544,0,0,89.543,0,200c0,110.456,89.544,200,200,200s200-89.544,200-200C400,89.543,310.456,0,200,0L200,0z"/>
</g>
<g>
	<path fill="#FFFFFF" d="M141.521,199.377c0,15.829-5.648,27.493-16.949,34.984c-6.443,4.223-16.948,6.332-31.517,6.332h-44.75
		v-81.688h49.359c13.279,0,23.688,3.166,31.221,9.498C137.307,175.471,141.521,185.76,141.521,199.377z M123.086,199.059
		c0-16.991-8.425-25.486-25.274-25.486H63.926v51.767h25.263c10.903,0,18.83-1.477,23.788-4.436
		C119.716,216.896,123.086,209.613,123.086,199.059z"/>
	<path fill="#FFFFFF" d="M244.109,240.991h-16.19l-56.187-57.128l0.017,57.128h-15.663v-81.688h16.193l56.157,56.993l0.014-14.092
		v-42.901h15.66L244.109,240.991L244.109,240.991z"/>
	<path fill="#FFFFFF" d="M358.863,240.693h-19.646l-9.021-17.889h-47.587l-8.73,17.889h-17.463l42.493-81.688h16.879
		L358.863,240.693z M322.92,208.083l-16.154-33.246l-16.732,33.246H322.92z"/>
</g>
<path fill="#FFFFFF" d="M485.752,240.448c-0.648-2.048-1.187-4.046-1.61-5.993c-0.425-1.947-0.712-3.895-0.86-5.844
	c-2.498,3.797-5.781,6.979-9.852,9.552c-4.07,2.571-8.628,3.858-13.671,3.858c-8.439,0-14.92-2.174-19.438-6.519
	c-4.521-4.345-6.779-10.312-6.779-17.903c0-7.84,3.096-13.943,9.289-18.314c6.191-4.369,14.907-6.554,26.144-6.554h14.157v-7.117
	c0-4.244-1.248-7.566-3.745-9.963c-2.498-2.397-6.066-3.596-10.712-3.596c-4.146,0-7.441,1-9.889,2.997
	c-2.447,1.998-3.67,4.569-3.67,7.715h-17.529l-0.074-0.449c-0.351-6.392,2.51-12.061,8.577-17.004
	c6.067-4.944,13.97-7.416,23.708-7.416c9.439,0,17.055,2.397,22.849,7.191c5.793,4.794,8.689,11.686,8.689,20.675v36.032
	c0,3.347,0.225,6.556,0.674,9.626c0.449,3.071,1.174,6.08,2.172,9.026H485.752z M463.429,227.414c4.596,0,8.729-1.148,12.397-3.446
	c3.671-2.296,6.104-4.918,7.304-7.864v-11.985h-14.457c-5.294,0-9.438,1.312-12.436,3.933c-2.996,2.622-4.494,5.706-4.494,9.251
	c0,3.099,1.011,5.558,3.034,7.38C456.8,226.503,459.684,227.414,463.429,227.414z"/>
<path fill="#FFFFFF" d="M554.813,175.801l-7.791-0.3c-3.547,0-6.506,0.749-8.879,2.248c-2.371,1.498-4.205,3.621-5.506,6.367v56.332
	h-18.201v-81.052h16.631l1.197,11.761c2.047-4.145,4.682-7.39,7.902-9.738c3.221-2.347,6.93-3.521,11.125-3.521
	c1.098,0,2.121,0.087,3.07,0.262c0.947,0.175,1.822,0.387,2.621,0.637L554.813,175.801z"/>
<path fill="#FFFFFF" d="M595.743,139.695v19.701h14.531v13.484h-14.531v44.796c0,3.348,0.723,5.73,2.172,7.153
	c1.447,1.424,3.371,2.136,5.768,2.136c1,0,1.975-0.087,2.924-0.263c0.947-0.175,1.846-0.412,2.695-0.712l1.947,13.334
	c-1.549,0.851-3.396,1.511-5.543,1.984c-2.148,0.476-4.371,0.713-6.668,0.713c-6.691,0-11.938-1.961-15.73-5.881
	c-3.795-3.92-5.691-10.076-5.691-18.466V172.88h-12.361v-13.484h12.361v-19.701H595.743z"/>
<path fill="#FFFFFF" d="M668,218.425c0-2.796-1.199-5.118-3.596-6.967c-2.398-1.847-6.867-3.472-13.41-4.869
	c-9.689-2.047-17.018-4.955-21.986-8.727c-4.969-3.771-7.453-8.901-7.453-15.394c0-6.791,2.871-12.585,8.615-17.379
	c5.742-4.794,13.309-7.191,22.697-7.191c9.889,0,17.74,2.435,23.559,7.304c5.818,4.869,8.604,10.899,8.354,18.09l-0.148,0.45
	h-17.455c0-3.345-1.271-6.218-3.818-8.615s-6.043-3.596-10.488-3.596c-4.396,0-7.74,0.987-10.037,2.959
	c-2.299,1.974-3.447,4.382-3.447,7.229c0,2.846,1.088,5.106,3.26,6.779c2.174,1.674,6.578,3.159,13.223,4.457
	c10.188,2.097,17.74,5.056,22.66,8.876c4.918,3.819,7.379,9.026,7.379,15.619c0,7.292-3.01,13.21-9.027,17.753
	c-6.018,4.545-13.945,6.816-23.783,6.816c-10.539,0-18.854-2.696-24.945-8.09c-6.094-5.394-8.988-11.586-8.689-18.578l0.15-0.449
	h16.93c0.199,4.695,1.896,8.117,5.094,10.264c3.195,2.146,7.092,3.221,11.688,3.221c4.691,0,8.314-0.897,10.861-2.695
	C666.731,223.893,668,221.473,668,218.425z"/>
<path fill="#FFFFFF" d="M768.249,202.619c0,11.785-2.771,21.3-8.314,28.54c-5.545,7.241-13.26,10.862-23.146,10.862
	c-4.596,0-8.666-0.824-12.211-2.473c-3.547-1.648-6.592-4.07-9.141-7.267v39.327h-18.201V159.396h15.355l1.799,10.188
	c2.596-3.794,5.73-6.691,9.4-8.689c3.67-1.997,7.928-2.996,12.771-2.996c9.986,0,17.766,3.958,23.334,11.873
	c5.568,7.916,8.354,18.341,8.354,31.275V202.619L768.249,202.619z M750.12,201.007c0-8.277-1.563-15.047-4.682-20.31
	c-3.121-5.261-7.779-7.893-13.971-7.893c-3.797,0-7.018,0.811-9.664,2.431c-2.646,1.621-4.77,3.878-6.367,6.77v36.58
	c1.6,2.845,3.721,5.024,6.367,6.547c2.646,1.521,5.918,2.281,9.814,2.281c6.191,0,10.824-2.281,13.895-6.845
	c3.072-4.563,4.607-10.562,4.607-17.991V201.007L750.12,201.007z"/>
<path fill="#FFFFFF" d="M827.897,240.448c-0.65-2.048-1.188-4.046-1.611-5.993s-0.711-3.895-0.861-5.844
	c-2.498,3.797-5.781,6.979-9.85,9.552c-4.072,2.571-8.629,3.858-13.672,3.858c-8.439,0-14.92-2.174-19.439-6.519
	s-6.779-10.312-6.779-17.903c0-7.84,3.098-13.943,9.289-18.314c6.191-4.369,14.908-6.554,26.145-6.554h14.158v-7.117
	c0-4.244-1.248-7.566-3.746-9.963s-6.066-3.596-10.711-3.596c-4.146,0-7.443,1-9.891,2.997c-2.445,1.998-3.67,4.569-3.67,7.715
	h-17.527l-0.074-0.449c-0.352-6.392,2.508-12.061,8.576-17.004c6.066-4.944,13.971-7.416,23.709-7.416
	c9.438,0,17.053,2.397,22.848,7.191c5.793,4.794,8.689,11.686,8.689,20.675v36.032c0,3.347,0.225,6.556,0.674,9.626
	c0.449,3.071,1.174,6.08,2.172,9.026H827.897z M805.573,227.414c4.594,0,8.727-1.148,12.396-3.446
	c3.67-2.296,6.105-4.918,7.305-7.864v-11.985h-14.457c-5.295,0-9.439,1.312-12.438,3.933c-2.996,2.622-4.494,5.706-4.494,9.251
	c0,3.099,1.012,5.558,3.035,7.38C798.944,226.503,801.827,227.414,805.573,227.414z"/>
<path fill="#FFFFFF" d="M891.063,227.414c4.443,0,8.189-1.303,11.236-3.91c3.045-2.607,4.568-5.874,4.568-9.799h16.48l0.148,0.449
	c0.25,7.592-2.834,14.134-9.25,19.627c-6.418,5.494-14.146,8.24-23.186,8.24c-11.938,0-21.088-3.846-27.453-11.537
	c-6.369-7.689-9.553-17.428-9.553-29.215v-2.622c0-11.735,3.184-21.461,9.553-29.177c6.365-7.715,15.518-11.573,27.453-11.573
	c9.738,0,17.641,2.834,23.709,8.502c6.066,5.668,9,12.873,8.803,21.611l-0.15,0.45h-16.555c0-4.444-1.461-8.214-4.383-11.312
	c-2.922-3.096-6.73-4.644-11.424-4.644c-6.844,0-11.688,2.481-14.531,7.444c-2.848,4.963-4.271,11.184-4.271,18.664v2.617
	c0,7.631,1.424,13.902,4.271,18.814C879.377,224.958,884.221,227.414,891.063,227.414z"/>
<path fill="#FFFFFF" d="M968.864,242.021c-11.486,0-20.639-3.758-27.453-11.274c-6.818-7.517-10.227-17.166-10.227-28.952v-2.997
	c0-11.785,3.383-21.561,10.15-29.327c6.768-7.765,15.244-11.623,25.432-11.573c10.938,0,19.313,3.309,25.133,9.925
	c5.816,6.618,8.727,15.495,8.727,26.63v10.712h-50.563l-0.15,0.373c0.301,6.421,2.184,11.672,5.656,15.753
	c3.471,4.082,8.275,6.122,14.42,6.122c4.895,0,9.088-0.601,12.584-1.798c3.496-1.198,6.867-2.922,10.113-5.17l5.844,11.938
	c-3.047,2.711-7.092,4.995-12.137,6.852C981.35,241.092,975.504,242.021,968.864,242.021z M966.766,172.505
	c-4.492,0-8.189,1.786-11.086,5.356c-2.896,3.571-4.693,8.103-5.395,13.596l0.15,0.375h32.137v-1.873
	c0-5.143-1.313-9.338-3.934-12.584C976.018,174.128,972.059,172.505,966.766,172.505z"/>
</svg>
