<?xml version="1.0" encoding="utf-8"?>
<!-- Generator: Adobe Illustrator 15.1.0, SVG Export Plug-In . SVG Version: 6.00 Build 0)  -->
<!DOCTYPE svg PUBLIC "-//W3C//DTD SVG 1.1//EN" "http://www.w3.org/Graphics/SVG/1.1/DTD/svg11.dtd">
<svg version="1.1" id="Layer_1" xmlns="http://www.w3.org/2000/svg" xmlns:xlink="http://www.w3.org/1999/xlink" x="0px" y="0px"
	 width="512px" height="512px" viewBox="0 0 512 512" enable-background="new 0 0 512 512" xml:space="preserve">
<g>
	<path fill="#FFFFFF" d="M195.572,255.355c0,16.357-5.838,28.41-17.514,36.152c-6.658,4.362-17.514,6.544-32.568,6.544H99.248
		V213.64h51.004c13.723,0,24.478,3.271,32.263,9.814C191.218,230.653,195.572,241.286,195.572,255.355z M176.522,255.027
		c0-17.558-8.706-26.337-26.117-26.337H115.39v53.493h26.105c11.266,0,19.458-1.526,24.58-4.582
		C173.039,273.459,176.522,265.935,176.522,255.027z"/>
	<path fill="#FFFFFF" d="M301.581,298.357h-16.732l-58.059-59.032l0.017,59.032h-16.185v-84.411h16.732l58.03,58.893l0.012-14.562
		v-44.331h16.185V298.357z"/>
	<path fill="#FFFFFF" d="M420.158,298.052h-20.3l-9.322-18.486h-49.173l-9.021,18.486h-18.045l43.909-84.412h17.442L420.158,298.052
		z M383.017,264.352l-16.691-34.354l-17.292,34.354H383.017z"/>
	<path fill="#FFFFFF" d="M256,67.333c50.395,0,97.773,19.625,133.407,55.259c35.635,35.634,55.26,83.013,55.26,133.408
		c0,50.395-19.625,97.773-55.26,133.407c-35.634,35.635-83.013,55.26-133.407,55.26s-97.773-19.625-133.407-55.26
		C86.958,353.773,67.333,306.395,67.333,256c0-50.395,19.625-97.773,55.26-133.408C158.227,86.958,205.605,67.333,256,67.333
		 M256,49.333C141.861,49.333,49.333,141.861,49.333,256c0,114.139,92.528,206.667,206.667,206.667S462.667,370.139,462.667,256
		C462.667,141.861,370.139,49.333,256,49.333L256,49.333z"/>
</g>
</svg>
